<svg width="166" height="39" viewBox="0 0 166 39" fill="none" xmlns="http://www.w3.org/2000/svg">
<path d="M21.1058 5.34999C21.1058 7.62672 19.4389 9.49689 16.1051 10.9605C18.8697 11.4755 20.6721 12.729 21.5123 14.7212C21.7834 15.3852 21.9189 16.2661 21.9189 17.3638C21.9189 18.4479 21.7563 19.627 21.431 20.9008C21.1193 22.1612 20.6179 23.3537 19.9268 24.4786C19.2492 25.5898 18.3818 26.6062 17.3248 27.5277C16.2677 28.4493 15.0006 29.2421 13.5235 29.9061C10.4201 31.302 6.58487 31.9999 2.01787 31.9999C2.45153 30.9699 2.70224 30.1094 2.77 29.4182C2.85131 28.7271 2.91907 27.9885 2.97328 27.2025C3.0817 25.6034 3.13591 23.4554 3.13591 20.7585C3.13591 17.4925 3.0817 14.5111 2.97328 11.8143L2.74968 6.22409C2.69547 4.81469 2.5735 3.83218 2.38377 3.27655C2.08563 2.39567 1.59776 1.60288 0.920164 0.898183H11.6736C14.9532 0.898183 17.3248 1.22343 18.7884 1.87392C20.3333 2.55152 21.1058 3.71021 21.1058 5.34999ZM7.87231 15.8798L7.89264 26.2064C7.89264 26.9789 7.97395 27.5616 8.13657 27.9546C8.31275 28.3476 8.65832 28.5441 9.17329 28.5441C11.2603 28.5441 13.0017 27.5548 14.3976 25.5763C15.8341 23.5435 16.5523 20.9008 16.5523 17.6484C16.5523 16.0357 16.1932 14.8363 15.4749 14.0503C14.5263 13.0068 12.8255 12.4851 10.3726 12.4851C9.81701 12.4851 9.37657 12.5122 9.05133 12.5664C8.72608 12.6071 8.47537 12.7358 8.29919 12.9526C8.0146 13.305 7.87231 14.2807 7.87231 15.8798ZM14.5805 8.82607C15.0006 8.41951 15.2988 7.98585 15.4749 7.52508C15.6511 7.06431 15.7392 6.63743 15.7392 6.24442C15.7392 5.83786 15.6782 5.43131 15.5563 5.02475C15.4478 4.61819 15.2242 4.25906 14.8854 3.94737C14.1265 3.26977 12.8255 2.93097 10.9825 2.93097C9.58663 2.93097 8.75318 3.07327 8.48214 3.35786C8.21111 3.6289 8.04171 3.9948 7.97395 4.45557C7.90619 4.91633 7.87231 5.51262 7.87231 6.24442C7.87231 6.96267 7.89264 7.56574 7.93329 8.05361C7.97395 8.52792 8.08236 8.92771 8.25854 9.25295C8.59734 9.917 9.28848 10.249 10.332 10.249C11.389 10.249 12.2564 10.1135 12.934 9.84246C13.6251 9.57142 14.174 9.23262 14.5805 8.82607ZM39.7058 31.9999C39.882 31.1461 39.9701 30.4685 39.9701 29.9671C39.9701 29.4521 39.9565 29.0659 39.9294 28.8084C39.9159 28.5509 39.8888 28.2799 39.8481 27.9953C39.821 27.6971 39.7803 27.3719 39.7261 27.0195C39.6855 26.6536 39.6448 26.2335 39.6042 25.7592C39.2925 22.5203 38.188 19.8573 36.2907 17.7703C35.4505 16.8488 34.5425 16.1509 33.5668 15.6766C32.591 15.1887 31.7847 14.9448 31.1478 14.9448C30.5244 14.9448 30.0433 14.9854 29.7045 15.0667C28.9456 17.3435 28.5661 19.7218 28.5661 22.2018C28.5661 24.3972 28.6813 26.037 28.9117 27.1212C29.2776 28.7474 29.84 30.3804 30.5989 32.0202H24.5209C24.8461 31.2071 25.0087 29.4995 25.0087 26.8976C25.0087 24.282 25.2052 21.8427 25.5982 19.5795C25.9912 17.3028 26.4994 15.2768 27.1228 13.5015C27.7598 11.7262 28.4645 10.1745 29.2369 8.84639C30.0229 7.50475 30.8022 6.33929 31.5746 5.34999C32.3607 4.34715 33.0992 3.49338 33.7904 2.78868C34.4815 2.07043 35.0575 1.44026 35.5183 0.898183H41.9215C41.3388 1.56223 41.0474 2.49054 41.0474 3.68311C41.0474 4.22518 41.1355 5.11284 41.3117 6.34606L41.8199 10.0457C43.6765 22.8388 45.3366 30.1568 46.8002 31.9999H39.7058ZM30.5379 12.912C31.0664 12.7087 31.6221 12.6071 32.2048 12.6071C32.7875 12.6071 33.3093 12.6477 33.7701 12.729C34.2444 12.8103 34.7119 12.9459 35.1727 13.1356C36.162 13.515 36.9886 14.1181 37.6527 14.9448C36.9886 11.4619 36.5821 9.33426 36.433 8.5618L35.7215 5.00442L34.5628 6.38672C32.9366 8.3382 31.595 10.5133 30.5379 12.912ZM54.098 9.86279C54.0709 11.2722 54.0573 12.8781 54.0573 14.6805C54.0573 17.2418 54.1047 20.1758 54.1996 23.4825C54.2945 26.7756 54.369 28.6525 54.4232 29.1133C54.4774 29.5605 54.5452 29.9535 54.6265 30.2923C54.762 30.848 54.9721 31.4171 55.2567 31.9999H49.8088C50.2153 31.1732 50.4593 30.3669 50.5406 29.5809C50.6354 28.7813 50.71 27.9885 50.7642 27.2025C50.8726 25.6034 50.9268 23.4554 50.9268 20.7585C50.9268 17.4925 50.8726 14.5111 50.7642 11.8143L50.5406 6.22409C50.4593 4.1642 50.134 2.70059 49.5648 1.83327C49.3345 1.50802 49.0499 1.19633 48.7111 0.898183H55.033C55.8326 2.74125 56.6796 4.57076 57.574 6.38672L60.3386 11.7939L66.2744 22.71C66.2879 21.8563 66.2947 20.9415 66.2947 19.9658V16.7946C66.2947 10.0186 65.8814 5.12639 65.0547 2.11786C64.8921 1.56223 64.7159 1.15567 64.5262 0.898183L70.6449 0.877855C69.9673 2.23305 69.5404 6.04792 69.3642 12.3225C69.3371 13.2982 69.3236 14.2333 69.3236 15.1277L69.3439 16.8353V25.129C69.3439 28.639 69.371 30.9293 69.4252 31.9999H66.1321L60.237 21.0228L54.098 9.86279ZM96.7256 13.2982C96.7256 21.6055 95.1061 27.2431 91.8672 30.211C93.3986 34.0327 95.1671 36.9328 97.1728 38.9114H89.9564C89.2923 37.9085 88.5944 35.6792 87.8626 32.2235C87.2528 32.3455 86.6091 32.4064 85.9315 32.4064C82.3267 32.4064 79.6095 30.7124 77.78 27.3245C76.0182 24.0584 75.1373 19.383 75.1373 13.2982C75.1373 6.96945 77.0821 2.98518 80.9715 1.3454C82.3402 0.776216 83.9935 0.491625 85.9315 0.491625C91.4878 0.491625 94.8825 2.95808 96.1157 7.89098C96.5223 9.47656 96.7256 11.279 96.7256 13.2982ZM90.2207 25.1494C91.0067 22.2357 91.3997 18.2853 91.3997 13.2982C91.3997 6.11568 89.5769 2.52442 85.9315 2.52442C82.286 2.52442 80.4633 6.11568 80.4633 13.2982C80.4633 17.1741 80.714 20.4469 81.2154 23.1166C81.5406 21.9376 82.0759 21.0228 82.8213 20.3723C83.5802 19.7218 84.3594 19.3966 85.159 19.3966C85.9721 19.3966 86.6158 19.5389 87.0902 19.8235C87.5645 20.1081 87.9914 20.5078 88.3708 21.0228C89.0755 21.9579 89.6921 23.3334 90.2207 25.1494ZM85.9721 30.3736C86.4735 30.3736 86.9546 30.2381 87.4154 29.9671L87.2934 29.154C87.2528 28.8694 87.1782 28.4154 87.0698 27.792C86.975 27.1686 86.8394 26.4707 86.6633 25.6982C86.4871 24.9258 86.2906 24.2753 86.0738 23.7467C85.6265 22.6355 85.0912 22.0799 84.4679 22.0799C83.8716 22.0799 83.3905 22.4187 83.0246 23.0963C82.6722 23.7061 82.4961 24.3905 82.4961 25.1494C82.4961 26.5181 82.7332 27.7039 83.2075 28.7068C83.9935 29.818 84.9151 30.3736 85.9721 30.3736ZM117.684 21.5717L117.785 13.7657C117.785 8.30432 117.582 4.81469 117.175 3.29688C116.986 2.56507 116.755 2.02977 116.484 1.69097C116.227 1.35217 116.017 1.08791 115.854 0.898183H122.522L122.095 1.46736C121.485 2.36179 121.146 3.37141 121.078 4.49622C121.011 5.62103 120.956 6.7594 120.916 7.91131C120.889 9.06322 120.862 10.2084 120.834 11.3467C120.807 13.2575 120.794 15.392 120.794 17.75V20.23C120.794 24.6073 120.089 27.7446 118.68 29.6418C117.284 31.4849 115.007 32.4064 111.85 32.4064C105.738 32.4064 102.695 28.4832 102.722 20.6366L102.743 5.41098C102.743 3.26977 102.363 1.76551 101.604 0.898183H109.309C108.509 1.86037 108.109 3.22912 108.109 5.00442C108.109 6.03437 108.102 7.09142 108.089 8.17557L108.008 14.6805C107.994 15.7511 107.987 16.8556 107.987 17.994C107.987 22.0731 108.109 24.6615 108.353 25.7592C108.597 26.8434 108.895 27.6904 109.248 28.3002C110.061 29.6825 111.267 30.3736 112.866 30.3736C115.332 30.3736 116.85 28.5712 117.419 24.9664C117.596 23.8958 117.684 22.7642 117.684 21.5717ZM142.219 24.4786C142.585 24.98 142.768 25.705 142.768 26.6536C142.768 27.6023 142.728 28.3612 142.646 28.9304C142.565 29.486 142.436 29.9942 142.26 30.455C141.854 31.4849 141.318 31.9999 140.654 31.9999H124.189C125.232 31.4442 125.923 30.9089 126.262 30.394C126.899 29.4318 127.217 28.2121 127.217 26.735C127.204 23.1166 127.197 19.8438 127.197 16.9166V6.22409C127.197 4.20486 126.879 2.74125 126.242 1.83327C125.998 1.50802 125.706 1.19633 125.368 0.898183H140.654C141.576 1.22343 142.206 2.36179 142.545 4.31327C142.64 4.85535 142.687 5.38387 142.687 5.89885C142.687 6.9559 142.531 7.79612 142.219 8.41951L141.122 6.22409C140.39 4.78759 139.34 3.8254 137.971 3.33753C137.212 3.06649 136.358 2.93097 135.41 2.93097C134.461 2.93097 133.783 2.96485 133.377 3.03261C132.97 3.08682 132.659 3.22912 132.442 3.4595C132.089 3.85251 131.913 4.60464 131.913 5.7159C131.913 6.8136 131.94 7.57929 131.994 8.01295C132.049 8.43306 132.177 8.77863 132.381 9.04967C132.801 9.5782 133.688 9.84246 135.044 9.84246H141.427C141.115 10.6285 140.796 11.1841 140.471 11.5093C139.821 12.1598 138.94 12.4851 137.829 12.4851C137.395 12.4851 136.982 12.4377 136.589 12.3428C135.857 12.1666 135.213 12.0785 134.657 12.0785C134.102 12.0785 133.641 12.1327 133.275 12.2412C132.923 12.336 132.645 12.4919 132.442 12.7087C132.089 13.0882 131.913 13.7725 131.913 14.7618V24.4582C131.913 27.006 132.055 28.517 132.34 28.9913C132.625 29.4657 132.97 29.7503 133.377 29.8451C133.783 29.9264 134.461 29.9671 135.41 29.9671C136.358 29.9671 137.219 29.8316 137.991 29.5605C138.764 29.2895 139.407 28.91 139.922 28.4222C140.451 27.9343 140.885 27.3583 141.223 26.6943C141.562 26.0167 141.894 25.2781 142.219 24.4786ZM144.496 10.0457C144.171 9.25973 144.008 8.33142 144.008 7.26082C144.008 6.19021 144.049 5.31611 144.13 4.63852C144.212 3.94737 144.32 3.32398 144.455 2.76835C144.781 1.52157 145.181 0.898183 145.655 0.898183H163.564C164.35 0.898183 164.878 2.06365 165.149 4.39458C165.217 5.04508 165.251 5.7159 165.251 6.40705C165.251 8.03328 165.075 9.24618 164.722 10.0457C163.557 6.42737 162.046 4.10999 160.189 3.0936C159.769 2.84966 159.356 2.72769 158.949 2.72769C158.543 2.72769 158.224 2.83611 157.994 3.05294C157.763 3.25622 157.574 3.58824 157.425 4.04901C157.181 4.86212 157.059 5.83786 157.059 6.97623V14.5992L157.079 20.8195V26.7146C157.079 28.0427 157.249 29.0252 157.587 29.6622C157.94 30.2856 158.292 30.7599 158.644 31.0851C159.01 31.4104 159.437 31.7153 159.925 31.9999H149.537C150.513 31.2003 151.137 30.543 151.408 30.0281C151.909 29.093 152.16 27.9885 152.16 26.7146V8.39918C152.16 6.27153 152.078 4.90278 151.916 4.29294C151.753 3.66955 151.557 3.25622 151.326 3.05294C151.096 2.83611 150.777 2.72769 150.371 2.72769C149.964 2.72769 149.551 2.84966 149.131 3.0936C148.711 3.32398 148.297 3.63567 147.891 4.02868C147.498 4.40813 147.118 4.85535 146.753 5.37032C146.4 5.87174 146.075 6.39349 145.777 6.93557C145.194 8.00617 144.767 9.0429 144.496 10.0457Z" fill="#A07D50"/>
</svg>
