<svg width="13" height="14" viewBox="0 0 13 14" fill="none" xmlns="http://www.w3.org/2000/svg">
<path d="M11.6562 2.8125H1.34375C1.21943 2.8125 1.1002 2.86189 1.01229 2.94979C0.924386 3.0377 0.875 3.15693 0.875 3.28125C0.875 3.40557 0.924386 3.5248 1.01229 3.61271C1.1002 3.70061 1.21943 3.75 1.34375 3.75H1.8125V12.1875C1.8125 12.4361 1.91127 12.6746 2.08709 12.8504C2.2629 13.0262 2.50136 13.125 2.75 13.125H10.25C10.4986 13.125 10.7371 13.0262 10.9129 12.8504C11.0887 12.6746 11.1875 12.4361 11.1875 12.1875V3.75H11.6562C11.7806 3.75 11.8998 3.70061 11.9877 3.61271C12.0756 3.5248 12.125 3.40557 12.125 3.28125C12.125 3.15693 12.0756 3.0377 11.9877 2.94979C11.8998 2.86189 11.7806 2.8125 11.6562 2.8125ZM10.25 12.1875H2.75V3.75H10.25V12.1875ZM3.6875 1.40625C3.6875 1.28193 3.73689 1.1627 3.82479 1.07479C3.9127 0.986886 4.03193 0.9375 4.15625 0.9375H8.84375C8.96807 0.9375 9.0873 0.986886 9.17521 1.07479C9.26311 1.1627 9.3125 1.28193 9.3125 1.40625C9.3125 1.53057 9.26311 1.6498 9.17521 1.73771C9.0873 1.82561 8.96807 1.875 8.84375 1.875H4.15625C4.03193 1.875 3.9127 1.82561 3.82479 1.73771C3.73689 1.6498 3.6875 1.53057 3.6875 1.40625Z" fill="#787878"/>
</svg>
