<svg width="20" height="20" viewBox="0 0 20 20" fill="none" xmlns="http://www.w3.org/2000/svg">
<path d="M19.7071 18.2925C19.8 18.3854 19.8737 18.4957 19.924 18.6171C19.9743 18.7385 20.0001 18.8686 20.0001 19C20.0001 19.1314 19.9743 19.2615 19.924 19.3829C19.8737 19.5043 19.8 19.6146 19.7071 19.7075C19.6142 19.8004 19.5039 19.8741 19.3825 19.9244C19.2611 19.9747 19.131 20.0006 18.9996 20.0006C18.8682 20.0006 18.7381 19.9747 18.6167 19.9244C18.4953 19.8741 18.385 19.8004 18.2921 19.7075L9.99958 11.4137L1.70708 19.7075C1.51944 19.8951 1.26494 20.0006 0.999579 20.0006C0.734215 20.0006 0.47972 19.8951 0.292079 19.7075C0.104439 19.5199 -0.000976557 19.2654 -0.000976562 19C-0.000976568 18.7346 0.104439 18.4801 0.292079 18.2925L8.58583 10L0.292079 1.7075C0.104439 1.51986 -0.000976562 1.26536 -0.000976562 0.999999C-0.000976562 0.734635 0.104439 0.48014 0.292079 0.292499C0.47972 0.104858 0.734215 -0.000556946 0.999579 -0.000556946C1.26494 -0.000556946 1.51944 0.104858 1.70708 0.292499L9.99958 8.58625L18.2921 0.292499C18.4797 0.104858 18.7342 -0.000556951 18.9996 -0.000556946C19.2649 -0.000556941 19.5194 0.104858 19.7071 0.292499C19.8947 0.48014 20.0001 0.734635 20.0001 0.999999C20.0001 1.26536 19.8947 1.51986 19.7071 1.7075L11.4133 10L19.7071 18.2925Z" fill="#989B9E"/>
</svg>
