<svg width="18" height="14" viewBox="0 0 18 14" fill="none" xmlns="http://www.w3.org/2000/svg">
<path d="M1.4375 3.5625H4.27344C4.42489 4.15403 4.76892 4.67834 5.25128 5.05275C5.73363 5.42716 6.32688 5.63039 6.9375 5.63039C7.54812 5.63039 8.14137 5.42716 8.62372 5.05275C9.10608 4.67834 9.45011 4.15403 9.60156 3.5625H16.5625C16.7448 3.5625 16.9197 3.49007 17.0486 3.36113C17.1776 3.2322 17.25 3.05733 17.25 2.875C17.25 2.69266 17.1776 2.51779 17.0486 2.38886C16.9197 2.25993 16.7448 2.1875 16.5625 2.1875H9.60156C9.45011 1.59596 9.10608 1.07166 8.62372 0.697246C8.14137 0.322833 7.54812 0.119606 6.9375 0.119606C6.32688 0.119606 5.73363 0.322833 5.25128 0.697246C4.76892 1.07166 4.42489 1.59596 4.27344 2.1875H1.4375C1.25516 2.1875 1.0803 2.25993 0.951364 2.38886C0.822433 2.51779 0.75 2.69266 0.75 2.875C0.75 3.05733 0.822433 3.2322 0.951364 3.36113C1.0803 3.49007 1.25516 3.5625 1.4375 3.5625ZM6.9375 1.5C7.20945 1.5 7.47529 1.58064 7.70141 1.73173C7.92753 1.88281 8.10376 2.09756 8.20783 2.34881C8.3119 2.60006 8.33913 2.87652 8.28608 3.14325C8.23303 3.40997 8.10207 3.65497 7.90977 3.84727C7.71747 4.03957 7.47247 4.17052 7.20575 4.22358C6.93903 4.27663 6.66256 4.2494 6.41131 4.14533C6.16006 4.04126 5.94532 3.86503 5.79423 3.63891C5.64314 3.41279 5.5625 3.14695 5.5625 2.875C5.5625 2.51033 5.70737 2.16059 5.96523 1.90273C6.22309 1.64486 6.57283 1.5 6.9375 1.5ZM16.5625 10.4375H15.1016C14.9501 9.84596 14.6061 9.32166 14.1237 8.94725C13.6414 8.57283 13.0481 8.36961 12.4375 8.36961C11.8269 8.36961 11.2336 8.57283 10.7513 8.94725C10.2689 9.32166 9.92489 9.84596 9.77344 10.4375H1.4375C1.25516 10.4375 1.0803 10.5099 0.951364 10.6389C0.822433 10.7678 0.75 10.9427 0.75 11.125C0.75 11.3073 0.822433 11.4822 0.951364 11.6111C1.0803 11.7401 1.25516 11.8125 1.4375 11.8125H9.77344C9.92489 12.404 10.2689 12.9283 10.7513 13.3027C11.2336 13.6772 11.8269 13.8804 12.4375 13.8804C13.0481 13.8804 13.6414 13.6772 14.1237 13.3027C14.6061 12.9283 14.9501 12.404 15.1016 11.8125H16.5625C16.7448 11.8125 16.9197 11.7401 17.0486 11.6111C17.1776 11.4822 17.25 11.3073 17.25 11.125C17.25 10.9427 17.1776 10.7678 17.0486 10.6389C16.9197 10.5099 16.7448 10.4375 16.5625 10.4375ZM12.4375 12.5C12.1656 12.5 11.8997 12.4194 11.6736 12.2683C11.4475 12.1172 11.2712 11.9024 11.1672 11.6512C11.0631 11.3999 11.0359 11.1235 11.0889 10.8567C11.142 10.59 11.2729 10.345 11.4652 10.1527C11.6575 9.96043 11.9025 9.82947 12.1693 9.77642C12.436 9.72336 12.7124 9.75059 12.9637 9.85466C13.2149 9.95873 13.4297 10.135 13.5808 10.3611C13.7319 10.5872 13.8125 10.853 13.8125 11.125C13.8125 11.4897 13.6676 11.8394 13.4098 12.0973C13.1519 12.3551 12.8022 12.5 12.4375 12.5Z" fill="#373E44"/>
</svg>
