<svg width="11" height="11" viewBox="0 0 11 11" fill="none" xmlns="http://www.w3.org/2000/svg">
<path d="M8.26008 2.75002C7.63927 2.12684 6.82584 1.73207 5.95215 1.62997C5.07846 1.52786 4.19592 1.72443 3.44815 2.18768C2.70038 2.65092 2.13137 3.35359 1.83373 4.18134C1.53609 5.0091 1.52732 5.91321 1.80886 6.74658C2.09039 7.57995 2.64566 8.29352 3.38431 8.77118C4.12296 9.24884 5.00152 9.46248 5.87703 9.37734C6.75254 9.29219 7.57347 8.91328 8.20624 8.30224C8.83902 7.69121 9.24639 6.88402 9.36208 6.01202L9.36908 5.95602C9.37764 5.83291 9.43234 5.71756 9.52225 5.63302C9.61217 5.54848 9.73067 5.50099 9.85408 5.50002C10.1071 5.50002 10.3051 5.70602 10.2911 5.95702C10.2911 5.95702 10.3031 5.84802 10.2851 6.01802C10.1675 7.105 9.68326 8.11953 8.91219 8.89464C8.14112 9.66974 7.12913 10.1592 6.04279 10.2825C4.95645 10.4058 3.8605 10.1556 2.93534 9.57299C2.01017 8.99041 1.31093 8.11019 0.952699 7.07722C0.59447 6.04426 0.598606 4.92011 0.964426 3.88982C1.33025 2.85952 2.03595 1.98447 2.96537 1.4087C3.8948 0.832939 4.99256 0.590769 6.07797 0.722057C7.16337 0.853344 8.17173 1.35026 8.93708 2.13102V1.14402C8.93721 1.08381 8.9492 1.02422 8.97236 0.96864C8.99553 0.913063 9.02941 0.862592 9.07208 0.820109C9.11475 0.777626 9.16536 0.743964 9.22104 0.721043C9.27672 0.698123 9.33637 0.686393 9.39658 0.686525C9.45679 0.686656 9.51639 0.698645 9.57196 0.721808C9.62754 0.744972 9.67801 0.778855 9.72049 0.821523C9.76298 0.864192 9.79664 0.91481 9.81956 0.970488C9.84248 1.02617 9.85421 1.08581 9.85408 1.14602V3.20802C9.85408 3.32976 9.80572 3.44651 9.71964 3.53259C9.63356 3.61867 9.51681 3.66702 9.39508 3.66702H7.33408C7.27387 3.66716 7.21422 3.65543 7.15854 3.63251C7.10286 3.60959 7.05224 3.57592 7.00958 3.53344C6.9234 3.44764 6.87484 3.33113 6.87458 3.20952C6.87431 3.08792 6.92236 2.9712 7.00816 2.88502C7.09396 2.79885 7.21048 2.75029 7.33208 2.75002H8.26008Z" fill="#21243D"/>
</svg>
